<?xml version="1.0"?>
<svg xmlns="http://www.w3.org/2000/svg" xmlns:xlink="http://www.w3.org/1999/xlink" version="1.1" id="Capa_1" x="0px" y="0px" viewBox="0 0 416 416" style="enable-background:new 0 0 416 416;" xml:space="preserve" width="512px" height="512px" class=""><g><path style="fill:#FFFFFF" d="M363.625,124.181l-24.555,25.6c-5.747,6.269-5.747,16.196,0.522,22.465  c3.135,3.135,6.792,4.18,10.971,4.18c4.18,0,8.359-1.567,11.494-4.702l49.633-52.245c5.747-6.269,5.747-15.673,0-21.42  l-49.633-52.245c-5.747-6.269-15.673-6.269-21.943-0.522s-6.269,15.673-0.522,21.943l24.555,25.6H283.69  c-4.702,0-8.882,2.09-12.016,5.747L106.58,291.364H15.673C6.792,291.364,0,298.156,0,307.038s6.792,15.673,15.673,15.673h98.22  c4.702,0,8.882-2.09,12.016-5.224l165.094-193.306H363.625z" data-original="#4DCFE0" class="active-path" data-old_color="#4DCFE0"/><g>
	<path style="fill:#FFFFFF" d="M15.673,124.181h90.906l54.335,65.306c3.135,3.657,7.314,5.747,12.016,5.747   c3.657,0,7.314-1.045,9.927-3.657c6.792-5.747,7.314-15.673,2.09-21.943L125.91,98.581c-3.135-3.657-7.314-5.747-12.016-5.747   h-98.22C6.792,92.834,0,99.626,0,108.507S6.792,124.181,15.673,124.181z" data-original="#3A2C51" class="" data-old_color="#3A2C51"/>
	<path style="fill:#FFFFFF" d="M362.057,243.821c-5.747-6.269-15.673-6.269-21.943-0.522c-6.269,5.747-6.269,15.673-0.522,21.943   l24.555,25.6h-73.143l-54.857-64.784c-5.747-6.792-15.673-7.314-21.943-2.09c-6.792,5.747-7.314,15.673-2.09,21.943l59.559,71.053   c3.135,3.657,7.314,5.747,12.016,5.747h79.935l-24.555,25.6c-5.747,6.269-5.747,16.196,0.522,22.465   c3.135,3.135,6.792,4.18,10.971,4.18c4.18,0,8.359-1.567,11.494-4.702l49.633-52.245c5.747-6.269,5.747-15.673,0-21.42   L362.057,243.821z" data-original="#3A2C51" class="" data-old_color="#3A2C51"/>
</g></g> </svg>
